<?xml version="1.0" encoding="iso-8859-1"?>
<!-- Generator: Adobe Illustrator 18.0.0, SVG Export Plug-In . SVG Version: 6.00 Build 0)  -->
<!DOCTYPE svg PUBLIC "-//W3C//DTD SVG 1.1//EN" "http://www.w3.org/Graphics/SVG/1.1/DTD/svg11.dtd">
<svg version="1.1" id="Capa_1" xmlns="http://www.w3.org/2000/svg" xmlns:xlink="http://www.w3.org/1999/xlink" x="0px" y="0px"
	 viewBox="0 0 183.153 183.153" height="200" width="200" style="enable-background:new 0 0 183.153 183.153;" xml:space="preserve">
<g>
        <path d="M66.114 146.96c.546 1.311.847 2.747.847 4.255 0 6.13-4.977 11.101-11.112 11.101-6.138 0-11.113-4.97-11.113-11.101 0-3.776 1.887-7.112 4.774-9.117l-10.002-2.928a20.18 20.18 0 0 0-3.968 12.045c0 11.203 9.093 20.285 20.309 20.285 11.215 0 20.307-9.082 20.307-20.285 0-.445-.015-.889-.044-1.329l-9.998-2.926z" fill-rule="evenodd" clip-rule="evenodd" fill="#F3F3F3" data-color="1"></path>
        <path d="M159.693 130.931c-11.216 0-20.308 9.082-20.308 20.283 0 11.203 9.092 20.285 20.308 20.285 11.215 0 20.307-9.082 20.307-20.285 0-11.201-9.092-20.283-20.307-20.283zm0 31.384c-6.138 0-11.114-4.97-11.114-11.101 0-6.129 4.975-11.099 11.114-11.099 6.137 0 11.113 4.97 11.113 11.099 0 6.131-4.976 11.101-11.113 11.101z" fill-rule="evenodd" clip-rule="evenodd" fill="#F3F3F3" data-color="1"></path>
        <path d="M91.297 132.172c-5.149-2.523-7.648-4.738-7.895-11.483h-.022V87.376h.033l.016-19.817c.004-7.316-5.305-11.591-14.856-10.871l-43.25 3.26c-2.705.203-5.091 3.913-5.103 6.839L20 120.895c-.017 4.177 2.793 9.258 6.503 10.385l54.52 16.562c3.314 1.007 9.061 2.378 11.395-.76 1.137-1.933 1.858-4.126 2.412-6.263.886-3.416.391-6.725-3.533-8.647z" fill-rule="evenodd" clip-rule="evenodd" fill="#F3F3F3" data-color="1"></path>
        <path d="M160.077 125.754c2.795 0 5.489.527 8.017 1.474 12.893 4.832 13.865-2.928 3.741-8.794-5.573-3.229-11.265-4.503-14.704-4.503-6.423 0-3.111.173-4.597.501 2.155-9.123-.972-12.103-4.529-20.264-4.715-10.821-9.341-21.431-14.018-32.161-2.031-4.662-5.215 2.226-5.014 7.8l-12.51 12.08c-1.953 1.885-.575 8.404 3.515 4.455l10.333-9.978 6.205 25.796c2.577 10.712-7.019 29.368-16.788 29.467l-11.648.119c-6.118-.254-10.095-8.422-5.621-13.452-1.952.895-9.358-.171-13.205-1.664-1.463-.568-2.277-.307-2.67.404 0 2.81-.23 5.902 1.693 8.291 2.256 2.798 6.219 4.25 8.507 6.574 2.196 2.231 3.393 5.072 1.738 10.006l-2.958 8.819h27.145c3.774 0 8.291-1.335 10.508-4.816 7.255-11.384 11.968-20.154 26.86-20.154z" fill-rule="evenodd" clip-rule="evenodd" fill="#F3F3F3" data-color="1"></path>
        <path d="M104.262 113.792c3.679-.67 7.067-3.046 8.904-6.085 3.15-5.212 2.713-8.984-4.147-8.984H86.584v12.218c5.288 3.065 11.053 4.056 17.678 2.851z" fill-rule="evenodd" clip-rule="evenodd" fill="#F3F3F3" data-color="1"></path>
        <path d="M150.278 74.673c.417 0 .829-.02 1.232-.055l1.761-14.568a13.586 13.586 0 0 0-2.994-.329c-5.611 0-10.161 3.347-10.161 7.477.001 4.127 4.551 7.475 10.162 7.475z" fill-rule="evenodd" clip-rule="evenodd" fill="#F3F3F3" data-color="1"></path>
        <path fill-rule="evenodd" clip-rule="evenodd" fill="#F3F3F3" d="M74.804 47.418l.269 5.81-49.686 2.298-.269-5.81 49.686-2.298z" data-color="1"></path>
        <path fill-rule="evenodd" clip-rule="evenodd" fill="#F3F3F3" d="M80.986 38.662l.068 5.815-49.735.582-.068-5.816 49.735-.581z" data-color="1"></path>
        <path fill-rule="evenodd" clip-rule="evenodd" fill="#F3F3F3" d="M69.65 28.504l.345 5.806-49.65 2.945L20 31.449l49.65-2.945z" data-color="1"></path>
    </g>
</svg>
